<svg xmlns="http://www.w3.org/2000/svg" enable-background="new 0 0 1500 1500" viewBox="0 0 1500 1500" width="550" height="550"><rect width="1500" height="1500" fill="none"></rect><path fill="#e0e9f9" fill-rule="evenodd" d="M1322.4,780.2c0,210.5-113.6,394.5-282.9,493.9c0,0,0,0,0,0c-6.9,4-13.8,7.9-20.9,11.7	c-11.6,6.2-23.4,11.9-35.4,17.3c-71.2,31.8-150.2,49.5-233.2,49.5c-123.2,0-237.3-38.9-330.7-105.2c-4.4-3.1-8.8-6.3-13.2-9.6
	c-6.3-4.7-12.5-9.6-18.6-14.6c-128.2-105-209.9-264.5-209.9-443c0-214,117.4-400.6,291.4-498.8c8.5-4.8,17.1-9.4,25.8-13.7
	c5.3-2.7,10.7-5.3,16.2-7.8c72.8-33.5,153.7-52.2,239.1-52.2c118.3,0,228.3,35.9,319.5,97.4c10.9,7.3,21.5,15,31.8,23.1
	c6.3,4.9,12.5,9.9,18.6,15.1C1243.8,448.4,1322.4,605.1,1322.4,780.2z" clip-rule="evenodd" class="colore0e9f9 svgShape"></path><rect width="918.5" height="1042.7" x="317.9" y="76.7" fill="none"></rect><path fill="#1d77c7" fill-rule="evenodd" d="M1121.9,321.5c-0.6,7-1.2,14.3-1.9,21.9c-19.6,224.3-59,683.9-80.4,930.7c0,0,0,0,0,0
			c-6.9,4-13.8,7.9-20.9,11.7c-11.6,6.2-23.4,11.9-35.4,17.3c-71.2,31.8-150.2,49.5-233.2,49.5c-123.2,0-237.3-38.9-330.7-105.2
			c-4.4-3.1-8.8-6.3-13.2-9.6c23.4-269.1,63.8-739.9,81-937.3c1-11.5,3.6-22.5,7.6-32.9C512.2,222.6,556,191,606.7,191h395.6
			c28.2,0,55.3,9.9,76.7,27.7c4.2,3.4,8.1,7.2,11.8,11.2C1113.5,254.8,1124.8,288,1121.9,321.5z" clip-rule="evenodd" class="color1d77c7 svgShape"></path><path fill="#4fb4f3" fill-rule="evenodd" d="M1103.6,302.6c-0.7,8.2-1.5,16.8-2.2,25.7c-20.5,235.4-62.2,721.3-82.8,957.5c-11.6,6.2-23.4,11.9-35.4,17.3
			c-71.2,31.8-150.2,49.5-233.2,49.5c-123.2,0-237.3-38.9-330.7-105.2c-4.4-3.1-8.8-6.3-13.2-9.6c-6.3-4.7-12.5-9.6-18.6-14.6
			c23.3-268.3,64-743.2,81.4-941.6c0-0.1,0-0.2,0-0.2c5.5-61.9,57.4-109.3,119.5-109.3h395.6c33.6,0,65.8,14.1,88.5,38.9
			c2.3,2.5,4.4,5,6.4,7.6C1097.4,242.5,1106.3,272.4,1103.6,302.6z" clip-rule="evenodd" class="color4fb4f3 svgShape"></path><path fill="#ffffff" fill-rule="evenodd" d="M1070.7,292.2c-0.4,4.2-0.8,8.6-1.1,13.1c-20.3,232.4-65.8,763.1-86.3,997.9
			c-71.2,31.8-150.2,49.5-233.2,49.5c-123.2,0-237.3-38.9-330.7-105.2c22.6-260,64.3-746.4,82.6-955.3c1-11.4,4.2-22.2,9-32.2
			c15.5-31.6,48.4-53.9,84.6-53.9h396.6C1039.7,206,1074.8,244.6,1070.7,292.2z" clip-rule="evenodd" class="colorfff svgShape"></path><path fill="#004970" fill-rule="evenodd" d="M854,256.4c0.4-4.2-1-8.3-3.9-11.4c-2.8-3.1-6.8-4.8-11-4.8c-24.8,0-72,0-96.8,0c-9.2,0-16.9,7-17.7,16.2
			c0,0,0,0,0,0c-0.4,4.2,1,8.3,3.9,11.4c2.8,3.1,6.8,4.8,11,4.8c24.8,0,72,0,96.8,0C845.6,272.6,853.2,265.6,854,256.4
			C854,256.4,854,256.4,854,256.4z" clip-rule="evenodd" class="color004970 svgShape"></path><path fill="#fee7de" fill-rule="evenodd" d="M758.3,868.6c25.5,0,44.5,20.7,42.2,46.3c-2.2,25.5-24.8,46.3-50.3,46.3c-25.5,0-44.5-20.7-42.2-46.3
				S732.7,868.6,758.3,868.6z" clip-rule="evenodd" class="colorfee7de svgShape"></path><path fill="#fee7de" d="M829 749.5l-60.6 55.7c26.6.1 52.3 10.3 70.8 30.6l11.9 12.6c11.5 12.6 31.9 12.5 45.7-.1 6.6-6.1 10.7-14.2 11.5-22.8.8-8.6-1.8-16.7-7.4-22.8l-11.4-12.9c-.7-.8-1.5-1.5-2.2-2.2l-2.1-2.2c-.3-.4-.8-.7-1.2-1.1C867.9 768.3 849.2 756.8 829 749.5zM697.9 830.1l96.7-88.9c-49.7-6.3-103.6 9.9-145.4 48.4l-8.2 7.5-11.3 10.4c-13.8 12.7-15.5 33.4-3.9 46.1 11.6 12.7 32.3 12.8 46.1.1l19.5-18C693.4 833.8 695.6 831.9 697.9 830.1zM917 668.5l-47.8 44c20 9.8 38.5 23 54.6 39.6l14 15.4c10.5 11.5 29.4 11.5 42-.1 12.6-11.6 14.3-30.4 3.8-42l-9.9-10.8c0 0-.1-.1-.1-.1l-7.8-8.6c-1.4-1.5-2.9-2.8-4.5-3.9C947.6 689 932.8 677.9 917 668.5zM838.8 700.5l50.4-46.3c-97.5-42.6-220.3-23.8-310.9 56.6-.6.5-1.2.8-1.7 1.3l-21.2 19.5c-12.6 11.5-14.2 30.3-3.5 42 10.6 11.6 29.4 11.7 42 .1l21.2-19.5c.1-.2.3-.3.4-.4C680.2 696.1 766 678.3 838.8 700.5z" class="colorfee7de svgShape"></path><path fill="#fee7de" fill-rule="evenodd" d="M951.6,621L603.9,940.7c-6.1,5.6-6.5,15.1-0.9,21.2c5.6,6.1,15.1,6.5,21.2,0.9l347.6-319.7
			c6.1-5.6,6.5-15.1,0.9-21.2C967.2,615.8,957.7,615.4,951.6,621z" clip-rule="evenodd" class="colorfee7de svgShape"></path><path fill="#f2763d" fill-rule="evenodd" d="M735,845.3c25.5,0,44.5,20.7,42.2,46.3c-2.2,25.5-24.8,46.3-50.3,46.3c-25.5,0-44.5-20.7-42.2-46.3
				C686.9,866,709.4,845.3,735,845.3z" clip-rule="evenodd" class="colorf2763d svgShape"></path><path fill="#ed3f07" d="M805.7,726.2l-60.6,55.7c26.6,0.1,52.3,10.3,70.8,30.6l11.9,12.6c11.5,12.6,31.9,12.5,45.7-0.1
			c6.6-6.1,10.7-14.2,11.5-22.8c0.8-8.6-1.8-16.7-7.4-22.8l-11.4-12.9c-0.7-0.8-1.5-1.5-2.2-2.2l-2.1-2.2c-0.4-0.4-0.8-0.7-1.2-1.1
			C844.6,745.1,825.9,733.5,805.7,726.2z" class="colored3f07 svgShape"></path><path fill="#f2763d" d="M674.6,806.9l96.7-88.9c-49.7-6.3-103.6,9.9-145.4,48.4l-8.2,7.5l-11.3,10.4c-13.8,12.7-15.5,33.4-3.9,46.1
			c11.6,12.7,32.3,12.8,46.1,0.1l19.5-18C670.2,810.5,672.3,808.6,674.6,806.9z" class="colorf2763d svgShape"></path><path fill="#ed3f07" d="M893.8,645.2l-47.8,44c20,9.8,38.5,23,54.6,39.6l14,15.4c10.5,11.5,29.4,11.5,42-0.1
			c12.6-11.6,14.3-30.4,3.8-42l-9.9-10.8c0,0-0.1-0.1-0.1-0.1l-7.8-8.6c-1.4-1.5-2.9-2.8-4.5-3.9
			C924.3,665.8,909.5,654.6,893.8,645.2z" class="colored3f07 svgShape"></path><path fill="#f2763d" d="M815.5,677.2l50.4-46.3c-97.5-42.7-220.3-23.8-310.9,56.6c-0.6,0.5-1.2,0.8-1.7,1.3l-21.2,19.5
			c-12.6,11.5-14.2,30.3-3.5,42c10.6,11.6,29.4,11.7,42,0.1l21.2-19.5c0.1-0.2,0.3-0.3,0.4-0.4C656.9,672.8,742.7,655,815.5,677.2z" class="colorf2763d svgShape"></path><path fill="#f2763d" fill-rule="evenodd" d="M928.3,597.7L580.7,917.4c-6.1,5.6-6.5,15.1-0.9,21.2c5.6,6.1,15.1,6.5,21.2,0.9l347.6-319.7
			c6.1-5.6,6.5-15.1,0.9-21.2S934.4,592.1,928.3,597.7z" clip-rule="evenodd" class="colorf2763d svgShape"></path><path fill="#1d77c7" fill-opacity=".2" fill-rule="evenodd" d="M392.4,1159.7c101.7,92.4,236.7,148.8,384.8,148.8c95.2,0,185-23.3,264-64.5l-2.7,30.6
	c-84.7,49.6-183.3,78-288.5,78c-137.6,0-263.8-48.6-362.6-129.6L392.4,1159.7z" clip-rule="evenodd" class="color1d77c7 svgShape"></path></svg>